# xmcd CD database file
#
# Track frame offsets:
#	150
#	26597
#	50656
#	73940
#	95615
#	130671
#	143986
#	157804
#
# Disc length: 2398 seconds
#
# Revision: 0
# Processed by: cddbd v1.5.2PL0 Copyright (c) Steve Scherf et al.
# Submitted via: CDex 1.77
#
DISCID=6d095c08
DTITLE=Step Two - F. Pierotti and G. Benvenuti - Binari
DYEAR=2016
DGENRE=Jazz
TTITLE0=Equinox
TTITLE1=26-2
TTITLE2=Dear Lord
TTITLE3=Lazy Bird
TTITLE4=Spiritual
TTITLE5=Giant Step
TTITLE6=Syeeda's Song Flute
TTITLE7=Central Park West
EXTD=YEAR: 2016
EXTT0=
EXTT1=
EXTT2=
EXTT3=
EXTT4=
EXTT5=
EXTT6=
EXTT7=
PLAYORDER=
